<mxfile host="app.diagrams.net" modified="2024-06-10T15:40:53.559Z" agent="Mozilla/5.0 (Windows NT 10.0; Win64; x64) AppleWebKit/537.36 (KHTML, like Gecko) Chrome/125.0.0.0 Safari/537.36" etag="ah4nepwQT7ZX770-E1TD" version="24.5.2" type="device">
  <diagram name="Strona-1" id="scvJG1-VzAbe6n1vqrty">
    <mxGraphModel dx="1232" dy="1097" grid="1" gridSize="10" guides="1" tooltips="1" connect="1" arrows="1" fold="1" page="1" pageScale="1" pageWidth="827" pageHeight="1169" math="0" shadow="0">
      <root>
        <mxCell id="0" />
        <mxCell id="1" parent="0" />
        <mxCell id="g5439qCMq44ansru3MDE-8" style="edgeStyle=orthogonalEdgeStyle;rounded=0;orthogonalLoop=1;jettySize=auto;html=1;entryX=0.5;entryY=0;entryDx=0;entryDy=0;endArrow=none;endFill=0;" parent="1" source="g5439qCMq44ansru3MDE-1" target="g5439qCMq44ansru3MDE-7" edge="1">
          <mxGeometry relative="1" as="geometry" />
        </mxCell>
        <mxCell id="g5439qCMq44ansru3MDE-15" style="rounded=0;orthogonalLoop=1;jettySize=auto;html=1;entryX=0.5;entryY=1;entryDx=0;entryDy=0;endArrow=none;endFill=0;" parent="1" source="g5439qCMq44ansru3MDE-1" target="g5439qCMq44ansru3MDE-5" edge="1">
          <mxGeometry relative="1" as="geometry" />
        </mxCell>
        <mxCell id="g5439qCMq44ansru3MDE-17" style="rounded=0;orthogonalLoop=1;jettySize=auto;html=1;entryX=1;entryY=0.5;entryDx=0;entryDy=0;endArrow=none;endFill=0;" parent="1" source="g5439qCMq44ansru3MDE-1" target="g5439qCMq44ansru3MDE-4" edge="1">
          <mxGeometry relative="1" as="geometry" />
        </mxCell>
        <mxCell id="g5439qCMq44ansru3MDE-1" value="Users" style="rounded=0;whiteSpace=wrap;html=1;" parent="1" vertex="1">
          <mxGeometry x="180" y="120" width="120" height="60" as="geometry" />
        </mxCell>
        <mxCell id="g5439qCMq44ansru3MDE-2" value="Atack" style="ellipse;whiteSpace=wrap;html=1;" parent="1" vertex="1">
          <mxGeometry x="360" y="790" width="100" height="66.67" as="geometry" />
        </mxCell>
        <mxCell id="g5439qCMq44ansru3MDE-3" value="&lt;u&gt;Email&lt;/u&gt;" style="ellipse;whiteSpace=wrap;html=1;" parent="1" vertex="1">
          <mxGeometry x="80" y="40" width="100" height="66.67" as="geometry" />
        </mxCell>
        <mxCell id="g5439qCMq44ansru3MDE-4" value="Password" style="ellipse;whiteSpace=wrap;html=1;" parent="1" vertex="1">
          <mxGeometry x="50" y="116.66" width="100" height="66.67" as="geometry" />
        </mxCell>
        <mxCell id="g5439qCMq44ansru3MDE-5" value="PlayerOrAdmin" style="ellipse;whiteSpace=wrap;html=1;" parent="1" vertex="1">
          <mxGeometry x="200" y="30" width="100" height="66.67" as="geometry" />
        </mxCell>
        <mxCell id="g5439qCMq44ansru3MDE-6" value="" style="rhombus;whiteSpace=wrap;html=1;" parent="1" vertex="1">
          <mxGeometry x="660" y="106.67" width="140" height="83" as="geometry" />
        </mxCell>
        <mxCell id="g5439qCMq44ansru3MDE-18" style="edgeStyle=orthogonalEdgeStyle;rounded=0;orthogonalLoop=1;jettySize=auto;html=1;exitX=0.5;exitY=1;exitDx=0;exitDy=0;" parent="1" source="g5439qCMq44ansru3MDE-7" target="g5439qCMq44ansru3MDE-9" edge="1">
          <mxGeometry relative="1" as="geometry" />
        </mxCell>
        <mxCell id="g5439qCMq44ansru3MDE-7" value="UsersNicknames" style="rhombus;whiteSpace=wrap;html=1;" parent="1" vertex="1">
          <mxGeometry x="170" y="210" width="140" height="83" as="geometry" />
        </mxCell>
        <mxCell id="g5439qCMq44ansru3MDE-19" style="rounded=0;orthogonalLoop=1;jettySize=auto;html=1;entryX=0;entryY=0;entryDx=0;entryDy=0;endArrow=none;endFill=0;" parent="1" source="g5439qCMq44ansru3MDE-9" target="g5439qCMq44ansru3MDE-14" edge="1">
          <mxGeometry relative="1" as="geometry" />
        </mxCell>
        <mxCell id="g5439qCMq44ansru3MDE-20" style="rounded=0;orthogonalLoop=1;jettySize=auto;html=1;exitX=0;exitY=0;exitDx=0;exitDy=0;entryX=1;entryY=0.5;entryDx=0;entryDy=0;endArrow=none;endFill=0;" parent="1" source="g5439qCMq44ansru3MDE-9" target="g5439qCMq44ansru3MDE-10" edge="1">
          <mxGeometry relative="1" as="geometry" />
        </mxCell>
        <mxCell id="g5439qCMq44ansru3MDE-21" style="rounded=0;orthogonalLoop=1;jettySize=auto;html=1;exitX=0;exitY=0.5;exitDx=0;exitDy=0;entryX=1;entryY=0.5;entryDx=0;entryDy=0;endArrow=none;endFill=0;" parent="1" source="g5439qCMq44ansru3MDE-9" target="g5439qCMq44ansru3MDE-11" edge="1">
          <mxGeometry relative="1" as="geometry" />
        </mxCell>
        <mxCell id="g5439qCMq44ansru3MDE-22" style="rounded=0;orthogonalLoop=1;jettySize=auto;html=1;exitX=0;exitY=1;exitDx=0;exitDy=0;endArrow=none;endFill=0;" parent="1" source="g5439qCMq44ansru3MDE-9" target="g5439qCMq44ansru3MDE-12" edge="1">
          <mxGeometry relative="1" as="geometry" />
        </mxCell>
        <mxCell id="g5439qCMq44ansru3MDE-23" style="rounded=0;orthogonalLoop=1;jettySize=auto;html=1;exitX=0.5;exitY=1;exitDx=0;exitDy=0;endArrow=none;endFill=0;" parent="1" source="g5439qCMq44ansru3MDE-9" target="g5439qCMq44ansru3MDE-13" edge="1">
          <mxGeometry relative="1" as="geometry" />
        </mxCell>
        <mxCell id="g5439qCMq44ansru3MDE-9" value="Characters" style="rounded=0;whiteSpace=wrap;html=1;" parent="1" vertex="1">
          <mxGeometry x="180" y="340" width="120" height="60" as="geometry" />
        </mxCell>
        <mxCell id="g5439qCMq44ansru3MDE-10" value="&lt;u&gt;Username&lt;/u&gt;" style="ellipse;whiteSpace=wrap;html=1;" parent="1" vertex="1">
          <mxGeometry x="50" y="293" width="100" height="66.67" as="geometry" />
        </mxCell>
        <mxCell id="g5439qCMq44ansru3MDE-11" value="Experience points" style="ellipse;whiteSpace=wrap;html=1;" parent="1" vertex="1">
          <mxGeometry x="47.5" y="370" width="105" height="70" as="geometry" />
        </mxCell>
        <mxCell id="g5439qCMq44ansru3MDE-12" value="Level" style="ellipse;whiteSpace=wrap;html=1;" parent="1" vertex="1">
          <mxGeometry x="110" y="440" width="100" height="66.67" as="geometry" />
        </mxCell>
        <mxCell id="g5439qCMq44ansru3MDE-13" value="Gold" style="ellipse;whiteSpace=wrap;html=1;" parent="1" vertex="1">
          <mxGeometry x="220" y="430" width="100" height="66.67" as="geometry" />
        </mxCell>
        <mxCell id="g5439qCMq44ansru3MDE-25" style="rounded=0;orthogonalLoop=1;jettySize=auto;html=1;exitX=0.5;exitY=1;exitDx=0;exitDy=0;endArrow=none;endFill=0;" parent="1" source="g5439qCMq44ansru3MDE-14" target="g5439qCMq44ansru3MDE-24" edge="1">
          <mxGeometry relative="1" as="geometry" />
        </mxCell>
        <mxCell id="g5439qCMq44ansru3MDE-14" value="Class" style="rhombus;whiteSpace=wrap;html=1;" parent="1" vertex="1">
          <mxGeometry x="410" y="400" width="140" height="83" as="geometry" />
        </mxCell>
        <mxCell id="g5439qCMq44ansru3MDE-16" style="rounded=0;orthogonalLoop=1;jettySize=auto;html=1;exitX=0;exitY=0;exitDx=0;exitDy=0;entryX=0.8;entryY=0.9;entryDx=0;entryDy=0;entryPerimeter=0;endArrow=none;endFill=0;" parent="1" source="g5439qCMq44ansru3MDE-1" target="g5439qCMq44ansru3MDE-3" edge="1">
          <mxGeometry relative="1" as="geometry" />
        </mxCell>
        <mxCell id="g5439qCMq44ansru3MDE-27" style="rounded=0;orthogonalLoop=1;jettySize=auto;html=1;exitX=0;exitY=0.25;exitDx=0;exitDy=0;entryX=1;entryY=0.5;entryDx=0;entryDy=0;endArrow=none;endFill=0;" parent="1" source="g5439qCMq44ansru3MDE-24" target="g5439qCMq44ansru3MDE-26" edge="1">
          <mxGeometry relative="1" as="geometry" />
        </mxCell>
        <mxCell id="g5439qCMq44ansru3MDE-34" style="rounded=0;orthogonalLoop=1;jettySize=auto;html=1;exitX=0;exitY=1;exitDx=0;exitDy=0;endArrow=none;endFill=0;" parent="1" source="g5439qCMq44ansru3MDE-24" target="g5439qCMq44ansru3MDE-28" edge="1">
          <mxGeometry relative="1" as="geometry" />
        </mxCell>
        <mxCell id="g5439qCMq44ansru3MDE-35" style="rounded=0;orthogonalLoop=1;jettySize=auto;html=1;exitX=0.25;exitY=1;exitDx=0;exitDy=0;endArrow=none;endFill=0;" parent="1" source="g5439qCMq44ansru3MDE-24" target="g5439qCMq44ansru3MDE-2" edge="1">
          <mxGeometry relative="1" as="geometry" />
        </mxCell>
        <mxCell id="g5439qCMq44ansru3MDE-36" style="rounded=0;orthogonalLoop=1;jettySize=auto;html=1;exitX=1;exitY=0;exitDx=0;exitDy=0;entryX=0;entryY=1;entryDx=0;entryDy=0;endArrow=none;endFill=0;" parent="1" source="g5439qCMq44ansru3MDE-24" target="g5439qCMq44ansru3MDE-30" edge="1">
          <mxGeometry relative="1" as="geometry" />
        </mxCell>
        <mxCell id="g5439qCMq44ansru3MDE-37" style="rounded=0;orthogonalLoop=1;jettySize=auto;html=1;exitX=1;exitY=0.5;exitDx=0;exitDy=0;endArrow=none;endFill=0;" parent="1" source="g5439qCMq44ansru3MDE-24" target="g5439qCMq44ansru3MDE-33" edge="1">
          <mxGeometry relative="1" as="geometry" />
        </mxCell>
        <mxCell id="g5439qCMq44ansru3MDE-38" style="rounded=0;orthogonalLoop=1;jettySize=auto;html=1;exitX=1;exitY=1;exitDx=0;exitDy=0;entryX=0;entryY=0;entryDx=0;entryDy=0;endArrow=none;endFill=0;" parent="1" source="g5439qCMq44ansru3MDE-24" target="g5439qCMq44ansru3MDE-32" edge="1">
          <mxGeometry relative="1" as="geometry" />
        </mxCell>
        <mxCell id="g5439qCMq44ansru3MDE-24" value="Entity" style="rounded=0;whiteSpace=wrap;html=1;" parent="1" vertex="1">
          <mxGeometry x="420" y="590" width="120" height="60" as="geometry" />
        </mxCell>
        <mxCell id="g5439qCMq44ansru3MDE-26" value="ID" style="ellipse;whiteSpace=wrap;html=1;fontStyle=4" parent="1" vertex="1">
          <mxGeometry x="200" y="570" width="100" height="66.67" as="geometry" />
        </mxCell>
        <mxCell id="g5439qCMq44ansru3MDE-28" value="Health Points" style="ellipse;whiteSpace=wrap;html=1;" parent="1" vertex="1">
          <mxGeometry x="190" y="723.33" width="100" height="66.67" as="geometry" />
        </mxCell>
        <mxCell id="g5439qCMq44ansru3MDE-29" value="" style="ellipse;whiteSpace=wrap;html=1;" parent="1" vertex="1">
          <mxGeometry x="670" y="29.99999999999997" width="100" height="66.67" as="geometry" />
        </mxCell>
        <mxCell id="g5439qCMq44ansru3MDE-30" value="SpriteSet" style="ellipse;whiteSpace=wrap;html=1;" parent="1" vertex="1">
          <mxGeometry x="620" y="470.00000000000006" width="100" height="66.67" as="geometry" />
        </mxCell>
        <mxCell id="g5439qCMq44ansru3MDE-32" value="Defense" style="ellipse;whiteSpace=wrap;html=1;" parent="1" vertex="1">
          <mxGeometry x="620" y="760" width="100" height="66.67" as="geometry" />
        </mxCell>
        <mxCell id="g5439qCMq44ansru3MDE-33" value="Difficulty" style="ellipse;whiteSpace=wrap;html=1;" parent="1" vertex="1">
          <mxGeometry x="660" y="560" width="100" height="66.67" as="geometry" />
        </mxCell>
        <mxCell id="g5439qCMq44ansru3MDE-48" style="rounded=0;orthogonalLoop=1;jettySize=auto;html=1;exitX=0.5;exitY=0;exitDx=0;exitDy=0;entryX=0.5;entryY=1;entryDx=0;entryDy=0;endArrow=none;endFill=0;" parent="1" source="g5439qCMq44ansru3MDE-39" target="g5439qCMq44ansru3MDE-40" edge="1">
          <mxGeometry relative="1" as="geometry" />
        </mxCell>
        <mxCell id="g5439qCMq44ansru3MDE-49" style="rounded=0;orthogonalLoop=1;jettySize=auto;html=1;exitX=1;exitY=0;exitDx=0;exitDy=0;entryX=0;entryY=1;entryDx=0;entryDy=0;endArrow=none;endFill=0;" parent="1" source="g5439qCMq44ansru3MDE-39" target="g5439qCMq44ansru3MDE-42" edge="1">
          <mxGeometry relative="1" as="geometry" />
        </mxCell>
        <mxCell id="g5439qCMq44ansru3MDE-50" style="rounded=0;orthogonalLoop=1;jettySize=auto;html=1;exitX=1;exitY=0.5;exitDx=0;exitDy=0;entryX=0;entryY=0.5;entryDx=0;entryDy=0;endArrow=none;endFill=0;" parent="1" source="g5439qCMq44ansru3MDE-39" target="g5439qCMq44ansru3MDE-45" edge="1">
          <mxGeometry relative="1" as="geometry" />
        </mxCell>
        <mxCell id="g5439qCMq44ansru3MDE-52" style="rounded=0;orthogonalLoop=1;jettySize=auto;html=1;exitX=0.5;exitY=1;exitDx=0;exitDy=0;endArrow=none;endFill=0;" parent="1" source="g5439qCMq44ansru3MDE-39" target="g5439qCMq44ansru3MDE-47" edge="1">
          <mxGeometry relative="1" as="geometry" />
        </mxCell>
        <mxCell id="g5439qCMq44ansru3MDE-60" style="rounded=0;orthogonalLoop=1;jettySize=auto;html=1;exitX=0;exitY=0.25;exitDx=0;exitDy=0;entryX=1;entryY=0.5;entryDx=0;entryDy=0;endArrow=none;endFill=0;" parent="1" source="g5439qCMq44ansru3MDE-39" target="g5439qCMq44ansru3MDE-53" edge="1">
          <mxGeometry relative="1" as="geometry" />
        </mxCell>
        <mxCell id="g5439qCMq44ansru3MDE-39" value="Items" style="rounded=0;whiteSpace=wrap;html=1;" parent="1" vertex="1">
          <mxGeometry x="850" y="350" width="120" height="60" as="geometry" />
        </mxCell>
        <mxCell id="g5439qCMq44ansru3MDE-40" value="&lt;u&gt;ItemID&lt;/u&gt;" style="ellipse;whiteSpace=wrap;html=1;" parent="1" vertex="1">
          <mxGeometry x="860" y="239.99999999999997" width="100" height="66.67" as="geometry" />
        </mxCell>
        <mxCell id="g5439qCMq44ansru3MDE-42" value="Type" style="ellipse;whiteSpace=wrap;html=1;" parent="1" vertex="1">
          <mxGeometry x="970" y="273.33" width="100" height="66.67" as="geometry" />
        </mxCell>
        <mxCell id="g5439qCMq44ansru3MDE-45" value="Value" style="ellipse;whiteSpace=wrap;html=1;" parent="1" vertex="1">
          <mxGeometry x="1010" y="350" width="100" height="66.67" as="geometry" />
        </mxCell>
        <mxCell id="g5439qCMq44ansru3MDE-46" value="Sprite" style="ellipse;whiteSpace=wrap;html=1;" parent="1" vertex="1">
          <mxGeometry x="960" y="430" width="100" height="66.67" as="geometry" />
        </mxCell>
        <mxCell id="g5439qCMq44ansru3MDE-47" value="EquipableFor" style="ellipse;whiteSpace=wrap;html=1;" parent="1" vertex="1">
          <mxGeometry x="850" y="460" width="100" height="66.67" as="geometry" />
        </mxCell>
        <mxCell id="g5439qCMq44ansru3MDE-51" style="rounded=0;orthogonalLoop=1;jettySize=auto;html=1;exitX=1;exitY=1;exitDx=0;exitDy=0;endArrow=none;endFill=0;" parent="1" source="g5439qCMq44ansru3MDE-39" target="g5439qCMq44ansru3MDE-46" edge="1">
          <mxGeometry relative="1" as="geometry" />
        </mxCell>
        <mxCell id="g5439qCMq44ansru3MDE-57" style="rounded=0;orthogonalLoop=1;jettySize=auto;html=1;exitX=0.5;exitY=0;exitDx=0;exitDy=0;entryX=0.5;entryY=1;entryDx=0;entryDy=0;endArrow=none;endFill=0;" parent="1" source="g5439qCMq44ansru3MDE-53" target="g5439qCMq44ansru3MDE-54" edge="1">
          <mxGeometry relative="1" as="geometry" />
        </mxCell>
        <mxCell id="g5439qCMq44ansru3MDE-58" style="rounded=0;orthogonalLoop=1;jettySize=auto;html=1;exitX=1;exitY=1;exitDx=0;exitDy=0;entryX=0.5;entryY=0;entryDx=0;entryDy=0;endArrow=none;endFill=0;" parent="1" source="g5439qCMq44ansru3MDE-53" target="g5439qCMq44ansru3MDE-56" edge="1">
          <mxGeometry relative="1" as="geometry" />
        </mxCell>
        <mxCell id="87St1FzbN4UTfdGuos2U-1" style="edgeStyle=orthogonalEdgeStyle;rounded=0;orthogonalLoop=1;jettySize=auto;html=1;exitX=0;exitY=0.5;exitDx=0;exitDy=0;entryX=1;entryY=0.25;entryDx=0;entryDy=0;" parent="1" source="g5439qCMq44ansru3MDE-53" target="g5439qCMq44ansru3MDE-9" edge="1">
          <mxGeometry relative="1" as="geometry" />
        </mxCell>
        <mxCell id="g5439qCMq44ansru3MDE-53" value="Equipment" style="rhombus;whiteSpace=wrap;html=1;" parent="1" vertex="1">
          <mxGeometry x="570" y="237.76000000000002" width="120" height="71.14" as="geometry" />
        </mxCell>
        <mxCell id="g5439qCMq44ansru3MDE-54" value="Quantity" style="ellipse;whiteSpace=wrap;html=1;" parent="1" vertex="1">
          <mxGeometry x="550" y="149.99999999999997" width="100" height="66.67" as="geometry" />
        </mxCell>
        <mxCell id="g5439qCMq44ansru3MDE-56" value="CurrentlyEquipped" style="ellipse;whiteSpace=wrap;html=1;" parent="1" vertex="1">
          <mxGeometry x="630" y="320" width="100" height="66.67" as="geometry" />
        </mxCell>
        <mxCell id="J1CLA5CfsXwN24BiiYMJ-1" value="re" style="edgeStyle=none;orthogonalLoop=1;jettySize=auto;html=1;rounded=0;" edge="1" parent="1">
          <mxGeometry width="80" relative="1" as="geometry">
            <mxPoint x="630" y="560" as="sourcePoint" />
            <mxPoint x="710" y="560" as="targetPoint" />
            <Array as="points" />
          </mxGeometry>
        </mxCell>
      </root>
    </mxGraphModel>
  </diagram>
</mxfile>
